<svg id="Layer_1" data-name="Layer 1" xmlns="http://www.w3.org/2000/svg" viewBox="0 0 36.45 61.03">
  <title>ikon_logo</title>
  <g>
    <rect x="17.76" y="25.3" width="0.92" height="23.53" fill="none"/>
    <rect width="17.76" height="24.38" fill="#e6cf5a"/>
    <rect x="18.69" width="17.76" height="24.38" fill="#e6cf5a"/>
    <rect y="25.3" width="17.76" height="22.95" fill="#e6cf5a"/>
    <polygon points="18.69 25.3 18.69 48.25 36.45 48.25 36.45 49.18 0 49.18 0 61.03 36.45 61.03 36.45 25.3 18.69 25.3" fill="#e6cf5a"/>
    <g>
      <path d="M45.83,16.25h2.08V23.4h0l3.28-7.15H53.3l-3.48,7.36,3.73,8.32H51.23L48,24.09h0v7.84H45.83Z" transform="translate(-22.71 -11.93)" fill="#fff"/>
      <path d="M28,44.76c0-2.2.68-4.13,3.5-4.13S35,42.09,35,44.52v7.93c0,2.19-.69,4.12-3.53,4.12-2.65,0-3.5-1.45-3.5-3.88ZM30,52.82c0,1.34.58,2.06,1.43,2.06s1.45-.72,1.45-2.06V44.58c0-1.54-.49-2.26-1.45-2.26S30,43,30,44.58Z" transform="translate(-22.71 -11.93)" fill="#fefeff"/>
      <path d="M45.54,40.23h2.87l2.45,13h0v-13h2V55.91h-3L47.41,42.53h0V55.91H45.54Z" transform="translate(-22.71 -11.93)" fill="#fff"/>
      <g>
        <path d="M28.93,65h.5v1.36L30.7,65h.62L30.18,66.2,31.4,68h-.63l-.93-1.42-.41.42v1h-.5Z" transform="translate(-22.71 -11.93)" fill="#fff"/>
        <path d="M34.24,65.08l-.32.37a1.35,1.35,0,0,1,.24.48,1.79,1.79,0,0,1,.09.57,1.74,1.74,0,0,1-.1.61,1.37,1.37,0,0,1-.27.49,1.1,1.1,0,0,1-.43.34,1.29,1.29,0,0,1-.57.12,1.35,1.35,0,0,1-.5-.09,1.19,1.19,0,0,1-.38-.25l-.31.36-.17-.15.32-.38a1.8,1.8,0,0,1-.24-.48,1.75,1.75,0,0,1-.08-.57,2,2,0,0,1,.09-.6,1.42,1.42,0,0,1,.27-.5,1.44,1.44,0,0,1,.43-.34,1.42,1.42,0,0,1,1.07,0,1.14,1.14,0,0,1,.39.25l.3-.35Zm-.77.55a.63.63,0,0,0-.24-.19.78.78,0,0,0-.35-.08.81.81,0,0,0-.39.1.75.75,0,0,0-.27.26,1.14,1.14,0,0,0-.15.36,1.51,1.51,0,0,0,0,.42,2.19,2.19,0,0,0,0,.36,1,1,0,0,0,.11.31Zm-1.18,1.74a.79.79,0,0,0,.25.2.89.89,0,0,0,.34.07.71.71,0,0,0,.39-.1.62.62,0,0,0,.27-.26,1.19,1.19,0,0,0,.16-.36,2,2,0,0,0,0-.42,1.34,1.34,0,0,0,0-.35,1.1,1.1,0,0,0-.11-.32Z" transform="translate(-22.71 -11.93)" fill="#fff"/>
        <path d="M34.7,65h1.39a1,1,0,0,1,.61.18.67.67,0,0,1,.23.56.71.71,0,0,1-.1.39.66.66,0,0,1-.3.24h0a.66.66,0,0,1,.4.26.92.92,0,0,1,.13.51.88.88,0,0,1-.06.33.61.61,0,0,1-.19.26.77.77,0,0,1-.32.18A1.7,1.7,0,0,1,36,68H34.7Zm.5,1.25H36a.4.4,0,0,0,.29-.11.49.49,0,0,0,0-.62.48.48,0,0,0-.31-.09H35.2Zm0,1.31h.88a.47.47,0,0,0,.36-.13.46.46,0,0,0,.12-.35.47.47,0,0,0-.12-.34.51.51,0,0,0-.36-.12H35.2Z" transform="translate(-22.71 -11.93)" fill="#fff"/>
        <path d="M37.51,65h2.05v.45H38v.78h1.44v.43H38v.87h1.58V68H37.51Z" transform="translate(-22.71 -11.93)" fill="#fff"/>
        <path d="M40,65h.52l1.31,2.2h0V65h.48v3h-.53l-1.3-2.19h0V68H40Z" transform="translate(-22.71 -11.93)" fill="#fff"/>
        <path d="M42.9,65h.5V66.2h1.29V65h.5v3h-.5V66.65H43.4V68h-.5Z" transform="translate(-22.71 -11.93)" fill="#fff"/>
        <path d="M46.56,65h.53l1.09,3h-.53l-.27-.79H46.24L46,68h-.52Zm-.18,1.8h.87l-.43-1.29h0Z" transform="translate(-22.71 -11.93)" fill="#fff"/>
        <path d="M47.88,65h.52l.72,2.36h0L49.86,65h.5l-1,3h-.56Z" transform="translate(-22.71 -11.93)" fill="#fff"/>
        <path d="M50.63,65h.52l1.31,2.2h0V65h.48v3h-.53l-1.3-2.19h0V68h-.47Z" transform="translate(-22.71 -11.93)" fill="#fff"/>
      </g>
      <path d="M30.35,31.66V16.26H31.8v15.4Z" transform="translate(-22.71 -11.93)" fill="#fff"/>
    </g>
    <path d="M29.86,16h2.07V31.66H29.86Z" transform="translate(-22.71 -11.93)" fill="#fff"/>
  </g>
</svg>
